<?xml version="1.0" encoding="utf-8"?>
<!-- Generator: Adobe Illustrator 16.0.0, SVG Export Plug-In . SVG Version: 6.00 Build 0)  -->
<!DOCTYPE svg PUBLIC "-//W3C//DTD SVG 1.1//EN" "http://www.w3.org/Graphics/SVG/1.1/DTD/svg11.dtd">
<svg version="1.1" id="图层_1" xmlns="http://www.w3.org/2000/svg" xmlns:xlink="http://www.w3.org/1999/xlink" x="0px" y="0px"
	 width="72.667px" height="75.333px" viewBox="38.222 -15.667 72.667 75.333" enable-background="new 38.222 -15.667 72.667 75.333"
	 xml:space="preserve">
<linearGradient id="SVGID_1_" gradientUnits="userSpaceOnUse" x1="216.6472" y1="-182.3442" x2="216.647" y2="-140.0767" gradientTransform="matrix(1 0 0 -1 -155.9297 -123.4131)">
	<stop  offset="0" style="stop-color:#2D5F9C"/>
	<stop  offset="0.1741" style="stop-color:#356BAD"/>
	<stop  offset="0.4613" style="stop-color:#407BC3"/>
	<stop  offset="0.7391" style="stop-color:#4784D0"/>
	<stop  offset="0.9946" style="stop-color:#4987D4"/>
</linearGradient>
<path fill="url(#SVGID_1_)" d="M66.942,56.792c-10.065,5.637-18.159-0.55-23.8-10.618c-5.639-10.063-6.683-20.197,3.385-25.836
	c10.066-5.637,28.669-5.331,34.307,4.733C86.469,35.136,77.008,51.153,66.942,56.792z"/>
<g opacity="0.95">
	
		<linearGradient id="SVGID_2_" gradientUnits="userSpaceOnUse" x1="238.5857" y1="-177.1206" x2="238.5857" y2="-124.0073" gradientTransform="matrix(1 0 0 -1 -155.9297 -123.4131)">
		<stop  offset="0" style="stop-color:#1CA5F1"/>
		<stop  offset="0.3294" style="stop-color:#23B9F8"/>
		<stop  offset="0.6756" style="stop-color:#28C6FD"/>
		<stop  offset="0.9946" style="stop-color:#2ACAFF"/>
	</linearGradient>
	<path fill="url(#SVGID_2_)" d="M75.005,53.708c-14.667,0-19.804-11.887-19.804-26.558c0-14.665,5.139-26.556,19.804-26.556
		c14.663,0,35.104,11.891,35.104,26.556C110.108,41.821,89.667,53.708,75.005,53.708z"/>
</g>
<g opacity="0.98">
	<g opacity="0.25">
		<path fill="#2474BC" d="M70.052,40.74c-14.665,0-19.801-11.883-19.801-26.551c0-14.665,5.141-26.551,19.801-26.551
			c14.667,0,35.107,11.886,35.107,26.555C105.159,28.857,84.719,40.74,70.052,40.74z"/>
	</g>
	<g>
		
			<linearGradient id="SVGID_3_" gradientUnits="userSpaceOnUse" x1="233.6345" y1="-109.1611" x2="233.6345" y2="-162.2642" gradientTransform="matrix(1 0 0 -1 -155.9297 -123.4131)">
			<stop  offset="0" style="stop-color:#BD69FE"/>
			<stop  offset="0.0226" style="stop-color:#B66AFD"/>
			<stop  offset="0.1932" style="stop-color:#876EF3"/>
			<stop  offset="0.3635" style="stop-color:#6071EB"/>
			<stop  offset="0.5305" style="stop-color:#4174E5"/>
			<stop  offset="0.6934" style="stop-color:#2B75E1"/>
			<stop  offset="0.8503" style="stop-color:#1E77DE"/>
			<stop  offset="0.9946" style="stop-color:#1A77DD"/>
		</linearGradient>
		<path fill="url(#SVGID_3_)" d="M70.052,38.851c-14.665,0-19.801-11.884-19.801-26.551c0-14.666,5.141-26.552,19.801-26.552
			c14.667,0,35.107,11.887,35.107,26.556C105.159,26.967,84.719,38.851,70.052,38.851z"/>
	</g>
</g>
<g>
	<polygon fill="#FFFFFF" points="76.62,4.5 76.622,4.5 76.642,4.503 	"/>
	<path fill="#FFFFFF" d="M84.64,2.197c-0.783,0-1.416,0.63-1.416,1.416c0,0.092,0.037,0.174,0.053,0.264
		c-1.758,0.948-3.995,1.737-5.072,2.09c-0.125-0.206-0.388-0.562-0.847-0.948c1.074-0.716,3.14-2.155,4.64-3.588
		c0.214,0.12,0.446,0.209,0.71,0.209c0.808,0,1.454-0.65,1.454-1.451c0-0.804-0.646-1.455-1.454-1.455
		c-0.798,0-1.446,0.651-1.446,1.455c0,0.274,0.094,0.512,0.225,0.73c-1.555,1.483-3.792,3.019-4.755,3.653
		C76.691,4.546,76.661,4.525,76.62,4.5c-0.606-0.182-1.146-0.197-1.649-0.116c0.746-0.956,1.696-2.176,2.387-3.058
		c0.122,0.038,0.25,0.078,0.385,0.078c0.754,0,1.373-0.62,1.373-1.37c0-0.768-0.616-1.383-1.373-1.383
		c-0.763,0-1.38,0.615-1.38,1.383c0,0.355,0.146,0.674,0.374,0.918c-0.937,1.204-2.322,2.98-3.027,3.881
		c-0.594,0.333-1.16,0.794-1.754,1.31c-1.358,1.18-2.721,2.346-4.077,3.53c1.697-0.015,3.423-0.232,5.115-0.115
		c2.038,0.144,3.697,1.114,4.37,3.116c0.701,2.087,0.402,4.444-0.011,6.559c-0.527,2.704-1.385,5.353-2.501,7.868
		c-1.625,3.701-3.869,7.04-6.291,10.257c-0.312,0.405-0.883,1.096-0.883,1.096C74.844,39.541,82.24,36.5,82.24,36.5
		c2.466-9.4-1.09-22.644-1.09-22.644c-0.631-2.396-1.411-5.024-2.608-7.242c1.125-0.375,3.279-1.146,5.038-2.091
		c0.26,0.303,0.63,0.503,1.061,0.503c0.784,0,1.414-0.634,1.414-1.413C86.054,2.827,85.424,2.197,84.64,2.197z"/>
</g>
</svg>
